<svg width="183" height="180" viewBox="0 0 183 180" fill="none" xmlns="http://www.w3.org/2000/svg">
<path d="M99.125 67.5H83.875V52.5H99.125M99.125 127.5H83.875V82.5H99.125M91.5 15C81.4867 15 71.5715 16.9399 62.3204 20.709C53.0693 24.4781 44.6636 30.0026 37.5831 36.967C23.2835 51.0322 15.25 70.1088 15.25 90C15.25 109.891 23.2835 128.968 37.5831 143.033C44.6636 149.997 53.0693 155.522 62.3204 159.291C71.5715 163.06 81.4867 165 91.5 165C111.723 165 131.117 157.098 145.417 143.033C159.717 128.968 167.75 109.891 167.75 90C167.75 80.1509 165.778 70.3982 161.946 61.2987C158.114 52.1993 152.497 43.9314 145.417 36.967C138.336 30.0026 129.931 24.4781 120.68 20.709C111.429 16.9399 101.513 15 91.5 15Z" fill="white"/>
</svg>
