<svg width="164" height="164" viewBox="0 0 164 164" fill="none" xmlns="http://www.w3.org/2000/svg">
<g filter="url(#filter0_d_10_36)">
<path d="M81.9999 116.167C80.0638 116.167 78.4397 115.511 77.1277 114.199C75.8203 112.891 75.1666 111.269 75.1666 109.333V88.8333H54.4958C52.5596 88.8333 50.9652 88.1773 49.7124 86.8653C48.4596 85.5579 47.8332 83.9361 47.8332 82C47.8332 80.0639 48.4893 78.4398 49.8013 77.1278C51.1087 75.8204 52.7305 75.1667 54.6666 75.1667H75.1666V54.4958C75.1666 52.5597 75.8203 50.9653 77.1277 49.7125C78.4397 48.4597 80.0638 47.8333 81.9999 47.8333C83.936 47.8333 85.5578 48.487 86.8652 49.7945C88.1772 51.1065 88.8333 52.7305 88.8333 54.6667V75.1667H109.504C111.44 75.1667 113.035 75.8204 114.287 77.1278C115.54 78.4398 116.167 80.0639 116.167 82C116.167 83.9361 115.513 85.5579 114.205 86.8653C112.893 88.1773 111.269 88.8333 109.333 88.8333H88.8333V109.504C88.8333 111.44 88.1772 113.035 86.8652 114.287C85.5578 115.54 83.936 116.167 81.9999 116.167ZM81.9999 150.333C91.4527 150.333 100.336 148.538 108.65 144.949C116.964 141.363 124.196 136.496 130.346 130.346C136.496 124.196 141.363 116.964 144.949 108.65C148.538 100.336 150.333 91.4528 150.333 82C150.333 72.5472 148.538 63.6639 144.949 55.35C141.363 47.0361 136.496 39.8042 130.346 33.6542C124.196 27.5042 116.964 22.6343 108.65 19.0445C100.336 15.4593 91.4527 13.6667 81.9999 13.6667C72.5471 13.6667 63.6638 15.4593 55.3499 19.0445C47.036 22.6343 39.8041 27.5042 33.6541 33.6542C27.5041 39.8042 22.6365 47.0361 19.0512 55.35C15.4615 63.6639 13.6666 72.5472 13.6666 82C13.6666 91.4528 15.4615 100.336 19.0512 108.65C22.6365 116.964 27.5041 124.196 33.6541 130.346C39.8041 136.496 47.036 141.363 55.3499 144.949C63.6638 148.538 72.5471 150.333 81.9999 150.333ZM81.9999 136.667C66.8527 136.667 53.9536 131.343 43.3027 120.697C32.6564 110.046 27.3332 97.1472 27.3332 82C27.3332 66.8528 32.6564 53.9537 43.3027 43.3028C53.9536 32.6565 66.8527 27.3333 81.9999 27.3333C97.1471 27.3333 110.044 32.6565 120.69 43.3028C131.341 53.9537 136.667 66.8528 136.667 82C136.667 97.1472 131.341 110.046 120.69 120.697C110.044 131.343 97.1471 136.667 81.9999 136.667Z" fill="white"/>
</g>
<defs>
<filter id="filter0_d_10_36" x="-4" y="0" width="172" height="172" filterUnits="userSpaceOnUse" color-interpolation-filters="sRGB">
<feFlood flood-opacity="0" result="BackgroundImageFix"/>
<feColorMatrix in="SourceAlpha" type="matrix" values="0 0 0 0 0 0 0 0 0 0 0 0 0 0 0 0 0 0 127 0" result="hardAlpha"/>
<feOffset dy="4"/>
<feGaussianBlur stdDeviation="2"/>
<feComposite in2="hardAlpha" operator="out"/>
<feColorMatrix type="matrix" values="0 0 0 0 0 0 0 0 0 0 0 0 0 0 0 0 0 0 0.25 0"/>
<feBlend mode="normal" in2="BackgroundImageFix" result="effect1_dropShadow_10_36"/>
<feBlend mode="normal" in="SourceGraphic" in2="effect1_dropShadow_10_36" result="shape"/>
</filter>
</defs>
</svg>
