<svg width="163" height="163" viewBox="0 0 163 163" fill="none" xmlns="http://www.w3.org/2000/svg">
<path d="M40.75 129.042V132.607C40.75 135.437 39.7878 137.814 37.8635 139.739C35.9392 141.663 33.5056 142.625 30.5625 142.625C27.7326 142.625 25.3284 141.633 23.3497 139.65C21.3666 137.672 20.375 135.267 20.375 132.437V81.5L34.6375 40.75C35.3167 38.7125 36.5346 37.0712 38.2914 35.826C40.0437 34.5809 41.9951 33.9583 44.1458 33.9583H118.854C121.005 33.9583 122.959 34.5809 124.715 35.826C126.468 37.0712 127.683 38.7125 128.362 40.75L142.625 81.5V132.607C142.625 135.437 141.663 137.814 139.739 139.739C137.814 141.663 135.381 142.625 132.437 142.625C129.608 142.625 127.203 141.633 125.225 139.65C123.242 137.672 122.25 135.267 122.25 132.437V129.042H40.75ZM39.3917 67.9167H123.608L116.477 47.5417H46.5229L39.3917 67.9167ZM50.9375 108.667C53.7674 108.667 56.1716 107.675 58.1503 105.692C60.1334 103.713 61.125 101.309 61.125 98.4792C61.125 95.6493 60.1334 93.245 58.1503 91.2664C56.1716 89.2832 53.7674 88.2917 50.9375 88.2917C48.1076 88.2917 45.7034 89.2832 43.7248 91.2664C41.7416 93.245 40.75 95.6493 40.75 98.4792C40.75 101.309 41.7416 103.713 43.7248 105.692C45.7034 107.675 48.1076 108.667 50.9375 108.667ZM112.062 108.667C114.892 108.667 117.297 107.675 119.275 105.692C121.258 103.713 122.25 101.309 122.25 98.4792C122.25 95.6493 121.258 93.245 119.275 91.2664C117.297 89.2832 114.892 88.2917 112.062 88.2917C109.233 88.2917 106.828 89.2832 104.85 91.2664C102.867 93.245 101.875 95.6493 101.875 98.4792C101.875 101.309 102.867 103.713 104.85 105.692C106.828 107.675 109.233 108.667 112.062 108.667Z" fill="white"/>
</svg>
