<svg width="174" height="174" viewBox="0 0 174 174" fill="none" xmlns="http://www.w3.org/2000/svg">
<path d="M87.0001 14.5C83.3751 14.5 79.7501 15.8775 76.7776 18.7775L52.8526 42.63L87.0001 76.705L121.148 42.63L97.2225 18.7775C94.2501 15.8775 90.6251 14.5 87.0001 14.5ZM42.6301 52.8525L18.7776 76.7775C13.0501 82.4325 13.0501 91.5675 18.7776 97.2225L42.6301 121.147L76.7051 87L42.6301 52.8525ZM131.37 52.8525L97.2951 87L131.37 121.147L155.223 97.2225C160.95 91.5675 160.95 82.4325 155.223 76.7775L131.37 52.8525ZM87.0001 97.295L52.8526 131.37L76.7776 155.222C82.4326 160.95 91.5676 160.95 97.2225 155.222L121.148 131.37L87.0001 97.295Z" fill="white"/>
</svg>
