<svg width="164" height="164" viewBox="0 0 164 164" fill="none" xmlns="http://www.w3.org/2000/svg">
<g clip-path="url(#clip0_17_11)" filter="url(#filter0_d_17_11)">
<path d="M57.8405 106.159C56.4715 104.79 55.787 103.178 55.787 101.323C55.787 99.4737 56.4715 97.8647 57.8405 96.4957L72.3362 82L57.7197 67.3835C56.3507 66.0145 55.6871 64.4232 55.729 62.6096C55.7676 60.7992 56.4715 59.2096 57.8405 57.8405C59.2096 56.4715 60.8218 55.787 62.6773 55.787C64.5263 55.787 66.1353 56.4715 67.5043 57.8405L82 72.3362L96.6165 57.7197C97.9855 56.3507 99.5752 55.6855 101.386 55.7241C103.199 55.766 104.79 56.4715 106.159 57.8405C107.529 59.2096 108.213 60.8186 108.213 62.6676C108.213 64.523 107.529 66.1353 106.159 67.5043L91.6638 82L106.28 96.6165C107.649 97.9855 108.315 99.5752 108.276 101.386C108.234 103.199 107.529 104.79 106.159 106.159C104.79 107.529 103.181 108.213 101.332 108.213C99.477 108.213 97.8647 107.529 96.4957 106.159L82 91.6638L67.3835 106.28C66.0145 107.649 64.4232 108.313 62.6096 108.271C60.7993 108.232 59.2096 107.529 57.8405 106.159ZM33.6811 130.319C40.3652 137.003 47.9158 142.015 56.333 145.356C64.7469 148.699 73.3026 150.371 82 150.371C90.6974 150.371 99.2531 148.699 107.667 145.356C116.084 142.015 123.635 137.003 130.319 130.319C137.003 123.635 142.015 116.084 145.356 107.667C148.7 99.2531 150.371 90.6974 150.371 82C150.371 73.3026 148.701 64.7453 145.361 56.3281C142.017 47.9142 137.003 40.3652 130.319 33.681C123.635 26.9969 116.086 21.983 107.672 18.6393C99.2547 15.2989 90.6974 13.6287 82 13.6287C73.3026 13.6287 64.7469 15.3005 56.333 18.6442C47.9158 21.9846 40.3652 26.9969 33.681 33.681C26.9969 40.3652 21.9846 47.9158 18.6442 56.333C15.3005 64.7469 13.6287 73.3026 13.6287 82C13.6287 90.6974 15.3005 99.2531 18.6442 107.667C21.9846 116.084 26.9969 123.635 33.6811 130.319ZM43.3448 120.655C32.6341 109.944 27.2772 97.0594 27.274 82C27.2772 66.9406 32.6341 54.0555 43.3448 43.3448C54.0555 32.6341 66.9406 27.2772 82 27.2739C97.0594 27.2772 109.944 32.6341 120.655 43.3448C131.366 54.0555 136.721 66.939 136.721 81.9952C136.721 97.0578 131.366 109.944 120.655 120.655C109.944 131.366 97.0578 136.721 81.9952 136.721C66.939 136.721 54.0555 131.366 43.3448 120.655Z" fill="white"/>
</g>
<defs>
<filter id="filter0_d_17_11" x="-4" y="0" width="172" height="172" filterUnits="userSpaceOnUse" color-interpolation-filters="sRGB">
<feFlood flood-opacity="0" result="BackgroundImageFix"/>
<feColorMatrix in="SourceAlpha" type="matrix" values="0 0 0 0 0 0 0 0 0 0 0 0 0 0 0 0 0 0 127 0" result="hardAlpha"/>
<feOffset dy="4"/>
<feGaussianBlur stdDeviation="2"/>
<feComposite in2="hardAlpha" operator="out"/>
<feColorMatrix type="matrix" values="0 0 0 0 0 0 0 0 0 0 0 0 0 0 0 0 0 0 0.25 0"/>
<feBlend mode="normal" in2="BackgroundImageFix" result="effect1_dropShadow_17_11"/>
<feBlend mode="normal" in="SourceGraphic" in2="effect1_dropShadow_17_11" result="shape"/>
</filter>
<clipPath id="clip0_17_11">
<rect width="164" height="164" fill="white" transform="matrix(-1 0 0 1 164 0)"/>
</clipPath>
</defs>
</svg>
